<svg width="349" height="83" viewBox="0 0 349 83" fill="none" xmlns="http://www.w3.org/2000/svg">
<path d="M47.5998 49.1411V48.1567C47.5998 44.4379 48.131 41.0161 49.1935 37.8911C50.256 34.7348 51.8185 32.0004 53.881 29.6879C55.9435 27.3754 58.4904 25.5786 61.5217 24.2973C64.5529 22.9848 68.0529 22.3286 72.0217 22.3286C76.0217 22.3286 79.5373 22.9848 82.5685 24.2973C85.631 25.5786 88.1935 27.3754 90.256 29.6879C92.3185 32.0004 93.881 34.7348 94.9435 37.8911C96.006 41.0161 96.5373 44.4379 96.5373 48.1567V49.1411C96.5373 52.8286 96.006 56.2504 94.9435 59.4067C93.881 62.5317 92.3185 65.2661 90.256 67.6098C88.1935 69.9223 85.6467 71.7192 82.6154 73.0004C79.5842 74.2817 76.0842 74.9223 72.1154 74.9223C68.1467 74.9223 64.631 74.2817 61.5685 73.0004C58.506 71.7192 55.9435 69.9223 53.881 67.6098C51.8185 65.2661 50.256 62.5317 49.1935 59.4067C48.131 56.2504 47.5998 52.8286 47.5998 49.1411ZM63.3967 48.1567V49.1411C63.3967 51.0473 63.5373 52.8286 63.8185 54.4848C64.0998 56.1411 64.5685 57.5942 65.2248 58.8442C65.881 60.0629 66.7717 61.0161 67.8967 61.7036C69.0217 62.3911 70.4279 62.7348 72.1154 62.7348C73.7717 62.7348 75.1467 62.3911 76.2404 61.7036C77.3654 61.0161 78.256 60.0629 78.9123 58.8442C79.5685 57.5942 80.0373 56.1411 80.3185 54.4848C80.5998 52.8286 80.7404 51.0473 80.7404 49.1411V48.1567C80.7404 46.3129 80.5998 44.5786 80.3185 42.9536C80.0373 41.2973 79.5685 39.8442 78.9123 38.5942C78.256 37.3129 77.3654 36.3129 76.2404 35.5942C75.1154 34.8754 73.7092 34.5161 72.0217 34.5161C70.3654 34.5161 68.9748 34.8754 67.8498 35.5942C66.756 36.3129 65.881 37.3129 65.2248 38.5942C64.5685 39.8442 64.0998 41.2973 63.8185 42.9536C63.5373 44.5786 63.3967 46.3129 63.3967 48.1567ZM120.256 1.9848V73.9848H104.412V1.9848H120.256ZM145.944 34.0004V73.9848H130.147V23.2661H144.959L145.944 34.0004ZM144.022 46.8911L140.412 46.9848C140.412 43.4223 140.834 40.1411 141.678 37.1411C142.522 34.1411 143.772 31.5317 145.428 29.3129C147.084 27.0942 149.115 25.3754 151.522 24.1567C153.959 22.9379 156.772 22.3286 159.959 22.3286C162.178 22.3286 164.194 22.6723 166.006 23.3598C167.819 24.0161 169.381 25.0629 170.694 26.5004C172.006 27.9067 173.006 29.7504 173.694 32.0317C174.412 34.2817 174.772 36.9848 174.772 40.1411V73.9848H158.975V42.1567C158.975 40.0004 158.725 38.3754 158.225 37.2817C157.756 36.1879 157.069 35.4536 156.162 35.0786C155.256 34.7036 154.147 34.5161 152.834 34.5161C151.459 34.5161 150.225 34.8286 149.131 35.4536C148.037 36.0786 147.1 36.9536 146.319 38.0786C145.569 39.1723 144.99 40.4692 144.584 41.9692C144.209 43.4692 144.022 45.1098 144.022 46.8911ZM172.99 46.8911L168.584 46.9848C168.584 43.4223 168.975 40.1411 169.756 37.1411C170.569 34.1411 171.772 31.5317 173.365 29.3129C174.99 27.0942 177.006 25.3754 179.412 24.1567C181.819 22.9379 184.615 22.3286 187.803 22.3286C190.115 22.3286 192.24 22.6723 194.178 23.3598C196.115 24.0473 197.787 25.1567 199.194 26.6879C200.6 28.2192 201.694 30.2504 202.475 32.7817C203.256 35.2817 203.647 38.3754 203.647 42.0629V73.9848H187.803V42.0629C187.803 39.9692 187.553 38.3911 187.053 37.3286C186.584 36.2348 185.897 35.5004 184.99 35.1254C184.084 34.7192 183.006 34.5161 181.756 34.5161C180.256 34.5161 178.959 34.8286 177.865 35.4536C176.772 36.0786 175.85 36.9536 175.1 38.0786C174.381 39.1723 173.85 40.4692 173.506 41.9692C173.162 43.4692 172.99 45.1098 172.99 46.8911ZM237.256 74.9223C233.131 74.9223 229.444 74.2817 226.194 73.0004C222.944 71.6879 220.194 69.8911 217.944 67.6098C215.725 65.3286 214.022 62.7036 212.834 59.7348C211.678 56.7661 211.1 53.6254 211.1 50.3129V48.5317C211.1 44.8129 211.615 41.3754 212.647 38.2192C213.678 35.0317 215.209 32.2504 217.24 29.8754C219.272 27.5004 221.819 25.6567 224.881 24.3442C227.944 23.0004 231.506 22.3286 235.569 22.3286C239.162 22.3286 242.381 22.9067 245.225 24.0629C248.069 25.2192 250.475 26.8754 252.444 29.0317C254.444 31.1879 255.959 33.7973 256.99 36.8598C258.053 39.9223 258.584 43.3598 258.584 47.1723V53.5942H217.147V43.7036H243.162V42.4848C243.194 40.7973 242.897 39.3598 242.272 38.1723C241.678 36.9848 240.803 36.0786 239.647 35.4536C238.49 34.8286 237.084 34.5161 235.428 34.5161C233.709 34.5161 232.287 34.8911 231.162 35.6411C230.069 36.3911 229.209 37.4223 228.584 38.7348C227.99 40.0161 227.569 41.5004 227.319 43.1879C227.069 44.8754 226.944 46.6567 226.944 48.5317V50.3129C226.944 52.1879 227.194 53.8911 227.694 55.4223C228.225 56.9536 228.975 58.2661 229.944 59.3598C230.944 60.4223 232.131 61.2504 233.506 61.8442C234.912 62.4379 236.506 62.7348 238.287 62.7348C240.444 62.7348 242.569 62.3286 244.662 61.5161C246.756 60.7036 248.553 59.3598 250.053 57.4848L257.225 66.0161C256.194 67.4848 254.725 68.9067 252.819 70.2817C250.944 71.6567 248.694 72.7817 246.069 73.6567C243.444 74.5004 240.506 74.9223 237.256 74.9223ZM280.522 34.0942V73.9848H264.725V23.2661H279.537L280.522 34.0942ZM278.647 46.8911L274.944 46.9848C274.944 43.1098 275.412 39.6567 276.35 36.6254C277.287 33.5629 278.615 30.9692 280.334 28.8442C282.053 26.7192 284.1 25.1098 286.475 24.0161C288.881 22.8911 291.553 22.3286 294.49 22.3286C296.834 22.3286 298.975 22.6723 300.912 23.3598C302.881 24.0473 304.569 25.1567 305.975 26.6879C307.412 28.2192 308.506 30.2504 309.256 32.7817C310.037 35.2817 310.428 38.3754 310.428 42.0629V73.9848H294.537V42.0161C294.537 39.9848 294.256 38.4379 293.694 37.3754C293.131 36.2817 292.319 35.5317 291.256 35.1254C290.194 34.7192 288.897 34.5161 287.365 34.5161C285.74 34.5161 284.365 34.8286 283.24 35.4536C282.115 36.0786 281.209 36.9536 280.522 38.0786C279.865 39.1723 279.381 40.4692 279.069 41.9692C278.787 43.4692 278.647 45.1098 278.647 46.8911ZM345.912 23.2661V34.2348H315.35V23.2661H345.912ZM321.772 10.6567H337.569V57.4379C337.569 58.7817 337.725 59.8286 338.037 60.5786C338.35 61.2973 338.881 61.8129 339.631 62.1254C340.412 62.4067 341.444 62.5473 342.725 62.5473C343.631 62.5473 344.381 62.5317 344.975 62.5004C345.569 62.4379 346.131 62.3598 346.662 62.2661V73.5629C345.319 74.0004 343.912 74.3286 342.444 74.5473C340.975 74.7973 339.412 74.9223 337.756 74.9223C334.381 74.9223 331.49 74.3911 329.084 73.3286C326.709 72.2661 324.897 70.5942 323.647 68.3129C322.397 66.0317 321.772 63.0629 321.772 59.4067V10.6567Z" fill="black"/>
<path d="M13.1777 5.51697C45.1626 19.9102 45.1626 63.0898 13.1777 77.483" stroke="black" stroke-width="4" stroke-linecap="square" stroke-linejoin="round"/>
<path d="M4.6008 32.6476L4.26313 33.2338L3.76743 32.7732M4.6008 32.6476C4.46822 32.5709 4.31354 32.5416 4.16211 32.5644C4.01068 32.5872 3.87152 32.6609 3.76743 32.7732M4.6008 32.6476L6.76325 33.8956M4.6008 32.6476L3.92545 33.8159L6.08656 35.0653L6.76325 33.8956M3.76743 32.7732L4.75748 33.6917C3.58663 34.9551 2.7155 36.4661 2.20873 38.1125L0.917469 37.7127M3.76743 32.7732C2.4584 34.1852 1.48432 35.8726 0.917469 37.7127M0.917469 37.7127L1.5631 37.9126L1.22543 38.4961C1.09299 38.4196 0.990408 38.3005 0.934465 38.1582C0.878523 38.0159 0.872531 37.8588 0.917469 37.7127ZM1.22272 44.5012L1.5604 45.0861L0.914768 45.286C0.869489 45.1396 0.875305 44.9822 0.931265 44.8396C0.987225 44.697 1.09 44.5777 1.22272 44.5012ZM1.22272 44.5012L3.38653 43.2532M1.22272 44.5012L1.89942 45.6709L4.06052 44.4229L3.38653 43.2532M4.59945 50.3497C4.46687 50.4264 4.31219 50.4557 4.16076 50.4328C4.00933 50.41 3.87016 50.3364 3.76607 50.2241L4.26178 49.7649L4.59945 50.3497ZM4.59945 50.3497L3.92545 49.18L6.08791 47.932L6.7619 49.1017L4.59945 50.3497ZM10.3264 54.0101C10.1768 53.9763 10.0431 53.8927 9.94738 53.7729C9.85164 53.6531 9.79953 53.5043 9.7996 53.3509H10.4749L10.3264 54.0101ZM10.3264 54.0101L10.6276 52.6945C12.3068 53.0787 14.0509 53.0796 15.7305 52.6972L16.0303 54.0141C14.1533 54.4409 12.2028 54.4396 10.3264 54.0101ZM21.7559 50.3511L22.0936 49.7662L22.5893 50.2254C22.4852 50.3378 22.346 50.4114 22.1946 50.4342C22.0432 50.457 21.8885 50.4277 21.7559 50.3511ZM21.7559 50.3511L19.5948 49.103M21.7559 50.3511L22.4326 49.1814L20.2702 47.932L19.5948 49.103M25.1326 38.4961L24.795 37.9112L25.4406 37.7113C25.4859 37.8576 25.48 38.015 25.4241 38.1576C25.3681 38.3002 25.2654 38.4196 25.1326 38.4961ZM25.1326 38.4961L22.9715 39.7441L22.2962 38.5744M25.1326 38.4961L24.4586 37.3264L22.2962 38.5744M16.5558 29.6477H15.8804L16.0303 28.9899M16.5558 29.6477C16.5556 29.4947 16.5035 29.3464 16.4081 29.2269C16.3126 29.1074 16.1795 29.0239 16.0303 28.9899M16.5558 29.6477V32.1424M16.5558 29.6477H15.2051V32.1424M16.0303 28.9899L15.7305 30.3055C14.0513 29.9213 12.3072 29.9204 10.6276 30.3028L10.3277 28.9858M16.0303 28.9899C14.1539 28.5604 12.2048 28.559 10.3277 28.9858M10.3277 28.9858L10.4776 29.645H9.80095C9.80088 29.4916 9.85299 29.3428 9.94873 29.223C10.0445 29.1032 10.1781 29.0196 10.3277 28.9858ZM15.8804 32.1424H15.2051M15.2051 32.1424H16.5558M15.2051 32.1424C15.2051 34.7411 18.0185 36.366 20.2702 35.0667M22.6339 43.8394L22.2962 44.4242M22.2962 44.4242C20.0446 43.1249 20.0446 39.8738 22.2962 38.5744M22.2962 44.4242L22.9715 43.2545C22.6636 43.0767 22.4078 42.8209 22.23 42.513C22.0522 42.205 21.9586 41.8556 21.9586 41.5C21.9586 41.1444 22.0522 40.795 22.23 40.487C22.4078 40.179 22.6636 39.9233 22.9715 39.7454L22.2962 38.5744M19.9325 48.5182L19.5948 49.103M19.5948 49.103C19.2868 48.9252 18.9374 48.8316 18.5818 48.8316C18.2262 48.8316 17.8768 48.9252 17.5688 49.103C17.2608 49.2808 17.005 49.5366 16.8272 49.8446C16.6494 50.1526 16.5558 50.5006 16.5558 50.8562M19.5948 49.103L20.2702 47.9333C18.0185 46.634 15.2051 48.2561 15.2051 50.8562M3.7242 43.8394L4.06187 44.4242M4.06187 44.4242C6.31349 43.1249 6.31349 39.8738 4.06187 38.5744M4.06187 44.4242L3.38653 43.2532M6.42558 34.4818L6.08791 35.0667M6.08791 35.0667L6.76325 33.8956M6.08791 35.0667C8.33953 36.366 11.153 34.7425 11.153 32.1424M3.23525 47.2404C2.806 46.4969 2.46124 45.7077 2.20738 44.8875L0.916121 45.2873C1.20067 46.2036 1.58665 47.0852 2.06691 47.9158M3.23525 47.2404L2.06691 47.9158M3.23525 47.2404C3.66411 47.9838 4.17603 48.677 4.75883 49.307L3.76743 50.2254C3.11629 49.5213 2.54592 48.7466 2.06691 47.9158M23.1228 35.7596C23.5604 36.52 23.9022 37.3088 24.152 38.1125L25.4419 37.7127C25.1575 36.7964 24.7715 35.9147 24.2912 35.0842M23.1228 35.7596L24.2912 35.0842M23.1228 35.7596C22.6944 35.0158 22.1825 34.3226 21.5992 33.693L22.5906 32.7745C23.2418 33.4786 23.8122 34.2533 24.2912 35.0842M11.153 32.1424V29.6436H9.8023V32.1424M11.153 32.1424H9.8023M9.8023 32.1424C9.80206 32.4979 9.70826 32.8471 9.53034 33.1549C9.35242 33.4627 9.09664 33.7183 8.78868 33.896C8.48072 34.0736 8.13145 34.1671 7.77592 34.167C7.42039 34.167 7.07115 34.0734 6.76325 33.8956M3.38653 43.2532C4.73723 42.4725 4.73723 40.5248 3.38653 39.7454L4.06187 38.5744M4.06187 38.5744L1.90077 37.3277L1.22543 38.4974L3.38653 39.7441L4.06187 38.5744ZM11.153 50.8562V53.3509H9.8023V50.8562H11.153ZM11.153 50.8562C11.153 48.2575 8.33953 46.634 6.08791 47.9333L6.76325 49.103C7.07135 48.9251 7.42084 48.8315 7.77659 48.8316C8.13235 48.8316 8.48181 48.9254 8.78985 49.1033C9.09789 49.2813 9.35363 49.5373 9.53136 49.8454C9.70909 50.1536 9.80253 50.5032 9.8023 50.8589L11.153 50.8562ZM16.5558 50.8562V53.355H15.2051V50.8562M16.5558 50.8562H15.2051M16.5558 32.1424C16.5555 32.4982 16.649 32.8464 16.8267 33.1545C17.0044 33.4627 17.2602 33.7187 17.5682 33.8966C17.8762 34.0746 18.2257 34.1683 18.5815 34.1684C18.9372 34.1685 19.2867 34.0748 19.5948 33.897M19.5948 33.897L21.7573 32.6476L22.4326 33.8173L20.2702 35.0667M19.5948 33.897L20.2702 35.0667M15.8791 53.3536L16.029 54.0128C16.1783 53.9788 16.3117 53.895 16.4072 53.7752C16.5026 53.6555 16.5545 53.5068 16.5544 53.3536H15.8791ZM24.7923 45.0847L25.4379 45.2846C25.4828 45.1385 25.4768 44.9814 25.4209 44.8391C25.3649 44.6968 25.2624 44.5776 25.1299 44.5012L24.7923 45.0847ZM22.0936 33.2311L22.5893 32.7718C22.4852 32.6595 22.346 32.5859 22.1946 32.5631C22.0432 32.5403 21.8885 32.5696 21.7559 32.6462L22.0936 33.2311ZM24.1493 44.8875C23.6426 46.5338 22.7714 48.0449 21.6006 49.3083L22.5906 50.2268C23.8996 48.8148 24.8737 47.126 25.4406 45.286L24.1493 44.8875ZM25.1313 44.4999L22.9715 43.2559L22.2962 44.4256L24.4573 45.6723L25.1313 44.4999Z" stroke="black" stroke-width="1.5" stroke-linecap="round" stroke-linejoin="round"/>
<path d="M13.1777 44.2013C14.6696 44.2013 15.879 42.9919 15.879 41.5C15.879 40.008 14.6696 38.7986 13.1777 38.7986C11.6857 38.7986 10.4763 40.008 10.4763 41.5C10.4763 42.9919 11.6857 44.2013 13.1777 44.2013Z" stroke="black"/>
</svg>
